<svg xmlns="http://www.w3.org/2000/svg" viewBox="0 0 1200 720" role="img" aria-label="Battleship game project cover">
  <defs>
    <linearGradient id="sea" x1="0" x2="1" y1="0" y2="1">
      <stop offset="0%" stop-color="#12325a"/>
      <stop offset="100%" stop-color="#245f8a"/>
    </linearGradient>
  </defs>
  <rect width="1200" height="720" fill="url(#sea)"/>
  <g stroke="#7ec9ff" stroke-width="2" opacity="0.4">
    <path d="M140 140H1060"/><path d="M140 200H1060"/><path d="M140 260H1060"/><path d="M140 320H1060"/>
    <path d="M140 380H1060"/><path d="M140 440H1060"/><path d="M140 500H1060"/><path d="M140 560H1060"/>
    <path d="M200 120V600"/><path d="M280 120V600"/><path d="M360 120V600"/><path d="M440 120V600"/>
    <path d="M520 120V600"/><path d="M600 120V600"/><path d="M680 120V600"/><path d="M760 120V600"/>
    <path d="M840 120V600"/><path d="M920 120V600"/><path d="M1000 120V600"/>
  </g>
  <circle cx="780" cy="360" r="70" fill="#ff8a6b"/>
  <line x1="740" y1="320" x2="820" y2="400" stroke="#fff2ea" stroke-width="10"/>
  <line x1="820" y1="320" x2="740" y2="400" stroke="#fff2ea" stroke-width="10"/>
  <text x="120" y="100" fill="#f0f8ff" font-size="54" font-family="Sora, sans-serif" font-weight="700">Battleship Game - Java OOP</text>
  <text x="120" y="640" fill="#d8ecff" font-size="30" font-family="Manrope, sans-serif">Object-oriented architecture with board state, ship placement rules, and hit detection</text>
</svg>
